# xmcd
# Track frame offsets:
# 150
# 11645
# 23192
# 42975
# 56530
# 70685
# 84820
# 99767
# 113757
# 130102
# 144352
# 158667
# 178070
# 188890
# 202930
#
# Disc length: 2876 seconds
# Revision: 2
# Processed by: cddbd v1.5.2PL0 Copyright (c) Steve Scherf et al.
# Submitted via: VisiTrax 2.11.3.279 - For more info visit www.synapsa.com
#
DISCID=b50b3a0f
DTITLE=Slim Dusty - Ringer From The Top End
DYEAR=1993
DGENRE=Australian Country
TTITLE0=Ringer From The Top End
TTITLE1=When The Country's Wet
TTITLE2=I've Been, Seen And Done That
TTITLE3=Where I Want To Be
TTITLE4=Life's Getting Better All The Time
TTITLE5=Down At The Woolshed
TTITLE6=Georgina's Son
TTITLE7=Charleville
TTITLE8=Old River Gum
TTITLE9=You Can't Take Australia From Me
TTITLE10=Pooncarie
TTITLE11=Shanty On The Rise
TTITLE12=Fiddle Man
TTITLE13=Bunda Waterhole
TTITLE14=After All
EXTD=1993 EMI Music Australia
EXTT0=
EXTT1=
EXTT2=
EXTT3=
EXTT4=
EXTT5=
EXTT6=
EXTT7=
EXTT8=
EXTT9=
EXTT10=
EXTT11=
EXTT12=
EXTT13=
EXTT14=
PLAYORDER=
